<svg xmlns="http://www.w3.org/2000/svg" viewBox="0 0 390.93 308"><defs><style>.cls-1,.cls-2{fill:none;stroke-miterlimit:10;}.cls-1{stroke:#1e1c55;stroke-width:8px;}.cls-2{stroke:#ff1c3b;stroke-linecap:round;stroke-width:2px;stroke-dasharray:4 4;}.cls-3{fill:#18184c;}.cls-4{opacity:0.3;}.cls-5{fill:#1e1c55;}.cls-6{fill:#ff1c3b;}.cls-7{fill:#212121;}.cls-8{fill:#fff;}</style></defs><title>Badge1</title><g id="Layer_2" data-name="Layer 2"><g id="Badge"><g id="Badge1"><path class="cls-1" d="M195.54,304A150,150,0,0,1,137.15,15.79,150,150,0,0,1,253.93,292.21,149.14,149.14,0,0,1,195.54,304Z"/><path class="cls-2" d="M195.54,291.5A137.53,137.53,0,0,1,142,27.31a137.53,137.53,0,0,1,107,253.38A136.72,136.72,0,0,1,195.54,291.5Z"/><polygon class="cls-3" points="308 256.68 373.29 275.33 366.67 240.05 390.93 213.59 325.65 194.94 308 256.68"/><path class="cls-4" d="M308,256.68l16.31.24a10.9,10.9,0,0,0,10.63-7.9l.62-2.17-22.88-6.54Z"/><polygon class="cls-3" points="83.49 257.09 18.46 276.61 24.6 241.24 0 215.11 65.03 195.59 83.49 257.09"/><path class="cls-4" d="M83.49,257.09l-16.3.46a10.91,10.91,0,0,1-10.74-7.76l-.65-2.16,22.8-6.84Z"/><path class="cls-5" d="M335.2,248.49a452,452,0,0,0-279.31,0Q46,218,36.05,187.43a516,516,0,0,1,319,0Z"/><polygon class="cls-5" points="198 60.73 176.61 60.73 176.61 67.03 187.31 67.03 187.31 67.85 187.31 94.16 195.04 94.16 195.04 67.85 195.04 67.03 198 67.03 198 94.16 205.74 94.16 205.74 67.03 205.74 60.73 198 60.73"/><rect class="cls-6" x="198" y="52.02" width="7.74" height="6.3"/><path class="cls-5" d="M110.41,118.41H103.7v-4H122v4h-6.72v17h-4.86Z"/><path class="cls-5" d="M141.16,131.55v3.9H124.9v-21h15.87v3.9h-11v4.56h9.75v3.78h-9.75v4.86Z"/><path class="cls-5" d="M144,125c0-6.33,4.86-10.86,11.4-10.86a10.84,10.84,0,0,1,8.64,3.72l-3.12,2.88a6.76,6.76,0,0,0-5.28-2.46,6.72,6.72,0,0,0,0,13.44,6.69,6.69,0,0,0,5.28-2.49l3.12,2.88a10.79,10.79,0,0,1-8.67,3.75C148.81,135.81,144,131.28,144,125Z"/><path class="cls-5" d="M186.82,114.45v21H182v-8.61h-9.54v8.61h-4.86v-21h4.86v8.28H182v-8.28Z"/><path class="cls-6" d="M192.1,114.45H197v21H192.1Z"/><path class="cls-6" d="M221.35,135.45l0-12.6-6.18,10.38H213l-6.15-10.11v12.33h-4.56v-21h4l7.86,13,7.74-13h4l.06,21Z"/><path class="cls-6" d="M249.4,122.07c0,4.68-3.51,7.59-9.12,7.59h-4.23v5.79h-4.86v-21h9.09C245.89,114.45,249.4,117.36,249.4,122.07Zm-4.92,0c0-2.31-1.5-3.66-4.47-3.66h-4v7.29h4C243,125.7,244.48,124.35,244.48,122.07Z"/><path class="cls-6" d="M253.15,114.45H258v17h10.53v4H253.15Z"/><path class="cls-6" d="M279.49,128v7.44h-4.86V128l-8.13-13.5h5.16l5.61,9.33,5.61-9.33h4.77Z"/><path class="cls-7" d="M141.77,258.51a3,3,0,0,1-1.87.56,2.55,2.55,0,0,1-2.86-2.8v-4h-1.37v-1.56H137v-1.89h2v1.89h2.22v1.56H139v4c0,.81.4,1.24,1.15,1.24a1.79,1.79,0,0,0,1.09-.34Z"/><path class="cls-7" d="M151,255.43h-6.51a2.5,2.5,0,0,0,2.69,2,3,3,0,0,0,2.25-.9l1,1.2a4.19,4.19,0,0,1-3.34,1.35c-2.79,0-4.59-1.79-4.59-4.26a4.13,4.13,0,0,1,4.29-4.24,4,4,0,0,1,4.2,4.29C151.05,255,151,255.25,151,255.43Zm-6.53-1.29h4.71a2.26,2.26,0,0,0-2.35-2A2.29,2.29,0,0,0,144.49,254.14Z"/><path class="cls-7" d="M152.39,254.81a4.19,4.19,0,0,1,4.49-4.24,3.72,3.72,0,0,1,3.54,1.93l-1.49.87a2.33,2.33,0,0,0-2.07-1.15,2.6,2.6,0,0,0,0,5.19,2.35,2.35,0,0,0,2.07-1.15l1.49.87a3.76,3.76,0,0,1-3.54,1.94A4.21,4.21,0,0,1,152.39,254.81Z"/><path class="cls-7" d="M170.36,254.21V259h-1.94v-4.5c0-1.48-.74-2.2-2-2.2a2.21,2.21,0,0,0-2.32,2.51V259h-1.94V247.43h1.94v4.19a3.72,3.72,0,0,1,2.77-1.05C168.88,250.57,170.36,251.7,170.36,254.21Z"/><path class="cls-7" d="M172.72,248.13A1.18,1.18,0,0,1,174,247a1.16,1.16,0,0,1,1.25,1.12,1.2,1.2,0,0,1-1.25,1.21A1.18,1.18,0,0,1,172.72,248.13Zm.26,2.53h2V259h-2Z"/><path class="cls-7" d="M191.52,254.21V259h-2v-4.5c0-1.48-.68-2.2-1.86-2.2s-2.16.84-2.16,2.49V259h-2v-4.5c0-1.48-.68-2.2-1.86-2.2s-2.16.84-2.16,2.49V259h-2v-8.3h1.85v1.06a3.43,3.43,0,0,1,2.72-1.15A3.1,3.1,0,0,1,185,252a3.89,3.89,0,0,1,3.11-1.38C190.12,250.57,191.52,251.7,191.52,254.21Z"/><path class="cls-7" d="M203,254.81a4,4,0,0,1-4.21,4.26A3.42,3.42,0,0,1,196.1,258v4h-1.94V250.66H196v1.09a3.42,3.42,0,0,1,2.75-1.18A4,4,0,0,1,203,254.81Zm-2,0a2.47,2.47,0,1,0-2.46,2.6A2.41,2.41,0,0,0,201,254.81Z"/><path class="cls-7" d="M205,247.43h1.94V259H205Z"/><path class="cls-7" d="M217.4,250.66l-3.89,9c-.76,1.88-1.82,2.46-3.2,2.46a3.43,3.43,0,0,1-2.22-.76l.77-1.43a2.17,2.17,0,0,0,1.43.57c.69,0,1.09-.32,1.47-1.15l.14-.32-3.63-8.34h2l2.62,6.14,2.62-6.14Z"/><path class="cls-7" d="M217.6,257.78a1.28,1.28,0,1,1,2.55,0,1.28,1.28,0,1,1-2.55,0Z"/><path class="cls-7" d="M221.36,254.81a4.2,4.2,0,0,1,4.5-4.24,3.74,3.74,0,0,1,3.54,1.93l-1.49.87a2.34,2.34,0,0,0-2.07-1.15,2.6,2.6,0,0,0,0,5.19,2.37,2.37,0,0,0,2.07-1.15l1.49.87a3.78,3.78,0,0,1-3.54,1.94A4.22,4.22,0,0,1,221.36,254.81Z"/><path class="cls-7" d="M230.43,254.81a4.42,4.42,0,1,1,4.41,4.26A4.17,4.17,0,0,1,230.43,254.81Zm6.88,0a2.47,2.47,0,1,0-2.47,2.6A2.41,2.41,0,0,0,237.31,254.81Z"/><path class="cls-7" d="M255.18,254.21V259h-2v-4.5c0-1.48-.68-2.2-1.86-2.2s-2.16.84-2.16,2.49V259h-2v-4.5c0-1.48-.68-2.2-1.86-2.2s-2.16.84-2.16,2.49V259h-2v-8.3h1.85v1.06a3.43,3.43,0,0,1,2.72-1.15,3.1,3.1,0,0,1,2.8,1.38,3.89,3.89,0,0,1,3.11-1.38C253.78,250.57,255.18,251.7,255.18,254.21Z"/><path class="cls-8" d="M107.55,185.83c-1.81.27-2.72.41-4.53.7-.15-1-.23-1.5-.39-2.49,4.94-.79,7.42-1.15,12.37-1.83l.35,2.49-4.53.64c.62,4.29.93,6.43,1.56,10.72l-3.22.48C108.52,192.25,108.19,190.11,107.55,185.83Z"/><path class="cls-8" d="M116.57,188.73c-.53-3.93,2.36-7.3,6.86-7.85s8.11,2,8.55,6-2.49,7.21-6.86,7.75S117.11,192.66,116.57,188.73Zm12.11-1.53a4.44,4.44,0,1,0-3.89,4.77A4.19,4.19,0,0,0,128.68,187.2Z"/><path class="cls-8" d="M146.51,183.58c.25,3-1.94,5-5.69,5.35l-2.82.28c.14,1.46.22,2.2.36,3.66l-3.22.33c-.57-5.31-.85-8-1.41-13.27,2.47-.26,3.71-.39,6.18-.62C143.72,178.94,146.26,180.59,146.51,183.58Zm-3.31.29c-.14-1.47-1.23-2.23-3.24-2l-2.68.26.46,4.61,2.66-.26C142.4,186.25,143.33,185.31,143.2,183.87Z"/><path class="cls-8" d="M168.09,190.66c-.16-3.2-.25-4.8-.41-8-1.54,2.72-2.3,4.08-3.8,6.81l-1.46.08c-1.8-2.47-2.7-3.7-4.53-6.16.21,3.13.31,4.69.51,7.82l-3,.21c-.38-5.33-.57-8-.94-13.32l2.73-.19c2.36,3.17,3.53,4.76,5.83,8,1.89-3.43,2.85-5.15,4.8-8.56l2.71-.13c.25,5.34.38,8,.63,13.34Z"/><path class="cls-8" d="M173.3,183.75c-.16-4,3-7,7.56-7.16s7.87,2.76,7.93,6.75-3.17,6.94-7.57,7S173.46,187.71,173.3,183.75Zm12.17-.36a4.43,4.43,0,1,0-4.31,4.37A4.18,4.18,0,0,0,185.47,183.39Z"/><path class="cls-8" d="M204.2,186.36c0,2.31-2,3.61-5.65,3.6-2.89,0-4.34,0-7.23,0l-.13-13.35c2.8,0,4.2,0,7,0,3.58,0,5.4,1.43,5.38,3.51a3.22,3.22,0,0,1-1.92,2.92A3.31,3.31,0,0,1,204.2,186.36Zm-9.71-7.42,0,3.15h3.26c1.6,0,2.47-.52,2.48-1.57s-.87-1.57-2.48-1.57Zm6.43,7.07c0-1.13-.89-1.67-2.59-1.67h-3.82c0,1.32,0,2,0,3.3h3.79C200,187.64,200.91,187.15,200.92,186Z"/><path class="cls-8" d="M206.84,176.69l3.31.07-.3,13.35-3.24-.07C206.7,184.7,206.75,182,206.84,176.69Z"/><path class="cls-8" d="M213.54,176.85c1.33,0,2,.05,3.32.1-.15,4.33-.22,6.49-.37,10.83,2.82.09,4.23.15,7,.28,0,1-.07,1.5-.12,2.51-4.1-.19-6.15-.26-10.25-.38C213.32,184.85,213.39,182.18,213.54,176.85Z"/><path class="cls-8" d="M236.23,188.81c-.07,1-.1,1.49-.17,2.47-4.33-.29-6.49-.41-10.82-.62l.65-13.34c4.32.21,6.48.34,10.8.63-.06,1-.09,1.48-.16,2.47-3-.2-4.49-.29-7.49-.45l-.15,2.89c2.63.14,4,.22,6.58.4-.07,1-.1,1.43-.16,2.39-2.62-.17-3.93-.25-6.55-.39-.07,1.24-.1,1.85-.17,3.09C231.65,188.51,233.17,188.61,236.23,188.81Z"/><path class="cls-8" d="M253.75,189.87c-2.6-.25-3.91-.37-6.51-.59L245.76,192l-3.31-.27c2.9-5.13,4.38-7.68,7.4-12.78l3.27.3c2,5.56,3,8.34,5,13.92l-3.38-.35C254.33,191.65,254.14,191.06,253.75,189.87Zm-.8-2.43c-.7-2.12-1-3.18-1.76-5.3-1.09,2-1.63,2.93-2.7,4.89Z"/><path class="cls-8" d="M272.71,186.34c-.38,2.95-3,4.47-6.7,4l-2.82-.33c-.17,1.47-.25,2.2-.42,3.66l-3.22-.36c.57-5.31.86-8,1.43-13.27,2.47.27,3.7.41,6.17.7C271,181.22,273.09,183.37,272.71,186.34Zm-3.31-.42c.18-1.46-.73-2.44-2.73-2.67l-2.68-.31c-.21,1.84-.31,2.76-.52,4.6l2.65.31C268.11,188.09,269.22,187.36,269.4,185.92Z"/><path class="cls-8" d="M287.25,188.4c-.46,2.94-3.07,4.4-6.81,3.86l-2.81-.4c-.21,1.46-.31,2.19-.51,3.65l-3.22-.44c.71-5.29,1.06-7.94,1.76-13.23,2.47.33,3.7.5,6.16.85C285.61,183.24,287.7,185.44,287.25,188.4Zm-3.3-.5c.21-1.46-.67-2.46-2.67-2.74l-2.67-.38c-.26,1.84-.38,2.75-.64,4.59l2.65.37C282.61,190,283.73,189.33,284,187.9Z"/><path class="cls-8" d="M62.22,215.41c2.45-.59,3.68-.88,6.13-1.44,4.42-1,8,.92,8.86,4.88S75.64,226,71.33,227c-2.4.54-3.6.83-6,1.4C64.09,223.2,63.47,220.6,62.22,215.41Zm8.39,9.14c2.63-.6,4-2.53,3.47-5s-2.65-3.66-5.32-3.05l-2.84.66c.76,3.22,1.13,4.83,1.89,8.06Z"/><path class="cls-8" d="M90.71,220.39c.19,1,.28,1.46.47,2.44-4.11.78-6.17,1.19-10.27,2-1.09-5.22-1.64-7.84-2.74-13.06,4.09-.86,6.14-1.27,10.25-2.06.19,1,.28,1.46.47,2.43-2.85.55-4.27.83-7.11,1.41.23,1.14.35,1.71.58,2.84,2.5-.51,3.75-.76,6.24-1.24.19.94.28,1.42.46,2.36-2.49.48-3.73.73-6.22,1.24.25,1.21.38,1.81.62,3C86.36,221.23,87.81,220.94,90.71,220.39Z"/><path class="cls-8" d="M104.07,207c-1.5,5.65-2.23,8.48-3.61,14.14l-3,.54c-3.24-4.85-4.88-7.26-8.22-12.06l3.39-.63c2.35,3.44,3.51,5.17,5.8,8.64,1-4,1.5-6.07,2.55-10.11Z"/><path class="cls-8" d="M117.3,216l.35,2.45c-4.14.59-6.2.9-10.33,1.57-.85-5.28-1.27-7.91-2.12-13.18,4.12-.67,6.18-1,10.32-1.57l.35,2.46c-2.87.4-4.3.62-7.15,1.06.18,1.15.26,1.72.44,2.86,2.51-.39,3.77-.57,6.28-.94l.35,2.38c-2.51.36-3.76.55-6.26.94l.47,3.05C112.92,216.6,114.38,216.38,117.3,216Z"/><path class="cls-8" d="M118.29,204.85l3.16-.42c.57,4.29.85,6.44,1.42,10.74,2.69-.36,4-.53,6.73-.85l.3,2.5c-3.92.47-5.88.72-9.79,1.26C119.38,212.79,119,210.14,118.29,204.85Z"/><path class="cls-8" d="M129.79,210.11c-.47-3.94,2.36-7.24,6.69-7.69s7.77,2.17,8.14,6.13-2.49,7.16-6.7,7.6S130.25,214.05,129.79,210.11Zm11.65-1.25a4.26,4.26,0,1,0-3.8,4.67A4.1,4.1,0,0,0,141.44,208.86Z"/><path class="cls-8" d="M158.63,205.61c.2,3-1.93,5-5.54,5.23l-2.72.22.3,3.67-3.11.26c-.46-5.32-.7-8-1.16-13.3,2.38-.21,3.56-.3,5.94-.49C156,200.92,158.43,202.62,158.63,205.61Zm-3.19.22c-.11-1.47-1.14-2.25-3.08-2.1l-2.58.2c.15,1.85.23,2.77.38,4.62l2.56-.2C154.64,208.2,155.55,207.28,155.44,205.83Z"/><path class="cls-8" d="M173.63,213.32c-.14-3.2-.21-4.81-.34-8-1.5,2.71-2.24,4.06-3.7,6.77l-1.4.07c-1.71-2.48-2.57-3.73-4.32-6.2l.45,7.83-2.91.17c-.34-5.33-.51-8-.84-13.32l2.63-.16c2.25,3.19,3.36,4.79,5.56,8,1.83-3.42,2.77-5.12,4.66-8.52l2.62-.1c.2,5.34.31,8,.51,13.34Z"/><path class="cls-8" d="M190.12,210.4c0,1,0,1.49,0,2.48-4.16.05-6.25.09-10.41.22l-.4-13.35c4.16-.12,6.24-.16,10.4-.21l0,2.47c-2.88,0-4.32.07-7.21.14,0,1.16.05,1.74.08,2.89,2.53-.06,3.79-.08,6.33-.12,0,1,0,1.45,0,2.41-2.52,0-3.78.06-6.31.12,0,1.23.05,1.85.08,3.09C185.71,210.46,187.18,210.44,190.12,210.4Z"/><path class="cls-8" d="M205.16,199.56,205,212.9l-2.55,0c-2.65-3.27-4-4.89-6.72-8.13,0,3.24,0,4.86,0,8.1l-3.07,0-.1-13.35h2.64c2.75,3.23,4.1,4.86,6.77,8.12,0-3.24,0-4.86.07-8.1Z"/><path class="cls-8" d="M211.21,202.19l-4.38-.09,0-2.52c4.8.09,7.2.16,12,.34l-.1,2.52-4.38-.16c-.14,4.34-.21,6.5-.34,10.83l-3.11-.09C211.05,208.69,211.1,206.53,211.21,202.19Z"/><path class="cls-8" d="M224.94,206.87c.2-4,3.53-6.74,7.81-6.47a7.08,7.08,0,0,1,5.49,2.74c-.87.67-1.3,1-2.16,1.68a4.44,4.44,0,0,0-3.33-1.79,4.27,4.27,0,1,0-.54,8.53,4.37,4.37,0,0,0,3.5-1.36c.75.79,1.13,1.18,1.87,2a7,7,0,0,1-5.71,2C227.71,213.91,224.74,210.89,224.94,206.87Z"/><path class="cls-8" d="M238.88,207.73c.29-3.95,3.7-6.65,8-6.27s7.22,3.61,6.82,7.57-3.81,6.55-8,6.18S238.59,211.69,238.88,207.73Zm11.67,1a4.26,4.26,0,1,0-4.61,3.87A4.1,4.1,0,0,0,250.55,208.72Z"/><path class="cls-8" d="M267.57,217.33c.4-3.18.6-4.77,1-8-1.92,2.41-2.88,3.63-4.77,6.06l-1.4-.17c-1.27-2.73-1.92-4.1-3.23-6.83-.34,3.11-.51,4.67-.86,7.79l-2.9-.31c.55-5.32.83-8,1.39-13.28l2.62.28c1.69,3.52,2.52,5.29,4.15,8.82,2.39-3.06,3.59-4.58,6-7.61l2.6.33c-.69,5.3-1,7.95-1.71,13.24Z"/><path class="cls-8" d="M286.55,211.45c-.47,2.94-3,4.4-6.59,3.87l-2.7-.4c-.21,1.46-.32,2.19-.53,3.65l-3.09-.44c.73-5.29,1.1-7.93,1.83-13.22,2.37.32,3.55.49,5.91.84C285,206.3,287,208.5,286.55,211.45Zm-3.17-.49c.22-1.46-.62-2.46-2.54-2.74l-2.57-.38c-.26,1.84-.39,2.76-.66,4.59l2.55.37C282.07,213.09,283.16,212.39,283.38,211Z"/><path class="cls-8" d="M296,218.77c-2.48-.44-3.73-.65-6.21-1.07l-1.65,2.63-3.16-.51c3.21-4.9,4.85-7.34,8.17-12.19l3.11.54c1.52,5.68,2.24,8.53,3.64,14.22l-3.23-.59C296.41,220.59,296.27,220,296,218.77Zm-.57-2.48c-.49-2.16-.75-3.25-1.26-5.41l-3,4.67Z"/><path class="cls-8" d="M316.21,212c-1.11,5.22-1.67,7.84-2.77,13.06l-2.52-.53c-2-3.72-3-5.58-5.05-9.28-.63,3.18-.94,4.77-1.56,7.95l-3-.58c1-5.25,1.49-7.87,2.48-13.12l2.6.5c2.09,3.71,3.11,5.57,5.11,9.29l1.64-7.94Z"/><path class="cls-8" d="M324,222.58c-.42,1.84-.64,2.76-1.06,4.61l-3.05-.7c.41-1.86.62-2.79,1-4.65-1.31-3.81-2-5.72-3.36-9.52l3.33.72c.93,2.64,1.39,4,2.29,6.59,2-2,2.94-3,4.92-4.95l3.07.73C328.25,218.26,326.81,219.69,324,222.58Z"/></g></g></g></svg>