<svg width="115" height="115" viewBox="0 0 115 115" fill="none" xmlns="http://www.w3.org/2000/svg">
<g filter="url(#filter0_d_2711_4559)">
<circle cx="57.5" cy="50.5" r="32.5" fill="url(#paint0_linear_2711_4559)"/>
</g>
<path d="M71.2149 64.1588C71.2078 64.6496 71.008 65.1179 70.6587 65.4624C70.3094 65.807 69.8388 66.0001 69.3484 66.0001H69.253C62.2073 65.4549 55.5885 62.4059 50.5915 57.4035C45.5946 52.4012 42.5489 45.7752 42.0043 38.7219C41.9877 38.4796 42.0195 38.2364 42.0978 38.0066C42.1762 37.7767 42.2995 37.5648 42.4606 37.3832C42.6217 37.2016 42.8173 37.054 43.0361 36.949C43.2548 36.8439 43.4923 36.7836 43.7346 36.7715H47.8219C48.6944 36.7817 49.5346 37.1033 50.1915 37.6784C50.8483 38.2534 51.2787 39.0442 51.4051 39.9085C51.5559 40.8989 51.7883 41.8752 52.0999 42.8272C52.208 43.1982 52.2145 43.5915 52.1186 43.9658C52.0227 44.3401 51.828 44.6818 51.555 44.9549L49.2933 47.2736C51.8107 52.172 55.8055 56.152 60.7105 58.6486L63.1221 56.2617C63.3601 56.0153 63.6635 55.842 63.9966 55.7623C64.3297 55.6826 64.6785 55.6997 65.0022 55.8117C66.0032 56.1372 67.0282 56.3835 68.0677 56.5482C68.9305 56.6979 69.7155 57.1402 70.2911 57.8008C70.8666 58.4614 71.1977 59.3001 71.2286 60.1762L71.2149 64.1588Z" stroke="white" stroke-width="1.3" stroke-linecap="round" stroke-linejoin="round"/>
<path d="M56.1709 43.8569C58.9757 44.0046 64.5852 45.8941 64.5852 52.2712" stroke="white" stroke-width="1.3" stroke-linecap="round" stroke-linejoin="round"/>
<path d="M56.1709 39.4287C60.3042 39.6463 68.5709 42.4308 68.5709 51.8287" stroke="white" stroke-width="1.3" stroke-linecap="round" stroke-linejoin="round"/>
<path d="M56.1709 35C61.7804 35.2952 72.9995 39.0743 72.9995 51.8286" stroke="white" stroke-width="1.3" stroke-linecap="round" stroke-linejoin="round"/>
<defs>
<filter id="filter0_d_2711_4559" x="0" y="0" width="115" height="115" filterUnits="userSpaceOnUse" color-interpolation-filters="sRGB">
<feFlood flood-opacity="0" result="BackgroundImageFix"/>
<feColorMatrix in="SourceAlpha" type="matrix" values="0 0 0 0 0 0 0 0 0 0 0 0 0 0 0 0 0 0 127 0" result="hardAlpha"/>
<feMorphology radius="1" operator="dilate" in="SourceAlpha" result="effect1_dropShadow_2711_4559"/>
<feOffset dy="7"/>
<feGaussianBlur stdDeviation="12"/>
<feComposite in2="hardAlpha" operator="out"/>
<feColorMatrix type="matrix" values="0 0 0 0 0.466667 0 0 0 0 0.701961 0 0 0 0 0.988235 0 0 0 0.5 0"/>
<feBlend mode="normal" in2="BackgroundImageFix" result="effect1_dropShadow_2711_4559"/>
<feBlend mode="normal" in="SourceGraphic" in2="effect1_dropShadow_2711_4559" result="shape"/>
</filter>
<linearGradient id="paint0_linear_2711_4559" x1="71.3341" y1="82.3929" x2="42.443" y2="22.5641" gradientUnits="userSpaceOnUse">
<stop stop-color="#5C77FD"/>
<stop offset="1" stop-color="#81C8FC"/>
</linearGradient>
</defs>
</svg>
