<svg width="115" height="115" viewBox="0 0 115 115" fill="none" xmlns="http://www.w3.org/2000/svg">
<g filter="url(#filter0_d_2711_4574)">
<circle cx="57.5" cy="50.5" r="32.5" fill="url(#paint0_linear_2711_4574)"/>
</g>
<path d="M60.4355 70.2994L51.5684 44.6685L77.1993 53.3134L64.4842 57.4671L60.4355 70.2994Z" stroke="white" stroke-width="1.3" stroke-linecap="round" stroke-linejoin="round"/>
<path d="M42.8412 41.3485L42.2427 41.095L42.8412 41.3485ZM55.9763 35.7632L55.7229 36.3617L55.9763 35.7632ZM60.7297 41.7009C60.8511 42.0387 61.2234 42.2141 61.5612 42.0927C61.8991 41.9713 62.0745 41.599 61.9531 41.2611L60.7297 41.7009ZM47.0366 54.9491C47.3562 55.1126 47.7478 54.9861 47.9114 54.6665C48.0749 54.347 47.9484 53.9553 47.6289 53.7918L47.0366 54.9491ZM55.3044 38.484C54.9739 38.344 54.5924 38.4985 54.4524 38.8291C54.3124 39.1597 54.4669 39.5411 54.7975 39.6811L55.3044 38.484ZM58.1832 43.3257C58.3027 43.6642 58.6739 43.8418 59.0124 43.7224C59.351 43.6029 59.5286 43.2317 59.4092 42.8931L58.1832 43.3257ZM48.6372 52.8434C48.9566 53.0072 49.3484 52.881 49.5122 52.5616C49.676 52.2422 49.5499 51.8504 49.2304 51.6866L48.6372 52.8434ZM45.823 43.0711L45.2245 42.8176L45.823 43.0711ZM52.5321 39.2047C52.8911 39.2095 53.186 38.9224 53.1908 38.5635C53.1956 38.2045 52.9086 37.9096 52.5496 37.9048L52.5321 39.2047ZM43.4398 41.602C45.5188 36.6924 51.0291 34.3741 55.7229 36.3617L56.2298 35.1646C50.8363 32.8807 44.5851 35.5636 42.2427 41.095L43.4398 41.602ZM55.7229 36.3617C58.142 37.3861 59.8869 39.3562 60.7297 41.7009L61.9531 41.2611C60.9953 38.5966 59.0034 36.3392 56.2298 35.1646L55.7229 36.3617ZM47.6289 53.7918C43.3511 51.6027 41.451 46.2985 43.4398 41.602L42.2427 41.095C40.0011 46.3885 42.1231 52.4346 47.0366 54.9491L47.6289 53.7918ZM54.7975 39.6811C56.4352 40.3746 57.6158 41.7175 58.1832 43.3257L59.4092 42.8931C58.7288 40.9648 57.3017 39.3298 55.3044 38.484L54.7975 39.6811ZM49.2304 51.6866C46.3379 50.2032 45.0471 46.5704 46.4216 43.3245L45.2245 42.8176C43.6025 46.648 45.0983 51.0285 48.6372 52.8434L49.2304 51.6866ZM46.4216 43.3245C47.5239 40.7214 50.0052 39.1707 52.5321 39.2047L52.5496 37.9048C49.4838 37.8635 46.5287 39.7377 45.2245 42.8176L46.4216 43.3245Z" fill="white"/>
<defs>
<filter id="filter0_d_2711_4574" x="0" y="0" width="115" height="115" filterUnits="userSpaceOnUse" color-interpolation-filters="sRGB">
<feFlood flood-opacity="0" result="BackgroundImageFix"/>
<feColorMatrix in="SourceAlpha" type="matrix" values="0 0 0 0 0 0 0 0 0 0 0 0 0 0 0 0 0 0 127 0" result="hardAlpha"/>
<feMorphology radius="1" operator="dilate" in="SourceAlpha" result="effect1_dropShadow_2711_4574"/>
<feOffset dy="7"/>
<feGaussianBlur stdDeviation="12"/>
<feComposite in2="hardAlpha" operator="out"/>
<feColorMatrix type="matrix" values="0 0 0 0 0.431373 0 0 0 0 0.85098 0 0 0 0 0.458824 0 0 0 0.5 0"/>
<feBlend mode="normal" in2="BackgroundImageFix" result="effect1_dropShadow_2711_4574"/>
<feBlend mode="normal" in="SourceGraphic" in2="effect1_dropShadow_2711_4574" result="shape"/>
</filter>
<linearGradient id="paint0_linear_2711_4574" x1="71.3341" y1="82.3929" x2="42.443" y2="22.5641" gradientUnits="userSpaceOnUse">
<stop stop-color="#59B85F"/>
<stop offset="1" stop-color="#6EDB75"/>
</linearGradient>
</defs>
</svg>
